<?xml version="1.0" standalone="no"?><!DOCTYPE svg PUBLIC "-//W3C//DTD SVG 1.1//EN" "http://www.w3.org/Graphics/SVG/1.1/DTD/svg11.dtd"><svg t="1680837704495" class="icon" viewBox="0 0 1024 1024" version="1.1" xmlns="http://www.w3.org/2000/svg" p-id="2168" data-darkreader-inline-fill="" xmlns:xlink="http://www.w3.org/1999/xlink" width="200" height="200"><path d="M938.11 432.44L552.72 156.88c-23.9-17.17-57.9-17.17-81.44 0L85.89 432.44c-16 11.7-19.87 34.72-8.68 51.42 14 14.58 38.61 16.83 54.79 5l357.2-261.21a38.38 38.38 0 0 1 45.6 0l362.76 265.28c16 11.69 38 7.63 49.23-9.07 11.21-16.7 7.31-39.72-8.68-51.42z" fill="#1296db" p-id="2169" data-darkreader-inline-fill="" style="--darkreader-inline-fill:#35708e;"></path><path d="M534.14 296.68a38 38 0 0 0-44.28 0L180.14 519H180v301a60 60 0 0 0 60 60h165V729.14A48.14 48.14 0 0 1 453.14 681h117.72A48.14 48.14 0 0 1 619 729.14V880h165a60 60 0 0 0 60-60V519h-0.14z" fill="#1296db" p-id="2170" data-darkreader-inline-fill="" style="--darkreader-inline-fill:#35708e;"></path></svg>