<?xml version="1.0" standalone="no"?><!DOCTYPE svg PUBLIC "-//W3C//DTD SVG 1.1//EN" "http://www.w3.org/Graphics/SVG/1.1/DTD/svg11.dtd"><svg t="1680837728788" class="icon" viewBox="0 0 1024 1024" version="1.1" xmlns="http://www.w3.org/2000/svg" p-id="2785" data-darkreader-inline-fill="" xmlns:xlink="http://www.w3.org/1999/xlink" width="200" height="200"><path d="M571 475.47s129 9.95 193.17-54.2a124.07 124.07 0 0 0 36.26-89 128.27 128.27 0 0 0-37.72-89.54C713 193 633.07 192.33 584.14 241.25c-60.83 60.84-54.85 192.63-54.85 192.63 0.93 25.49 18.49 41.05 41.71 41.59zM261.2 242.72a128.18 128.18 0 0 0-37.72 89.54 124 124 0 0 0 36.25 89c64.15 64.15 193.18 54.2 193.18 54.2 23.2-0.54 40.76-16.1 41.7-41.59 0 0 6-131.79-54.86-192.63-48.93-48.91-128.88-48.24-178.55 1.48zM571 510.82c-23.21 0.53-40.77 16.1-41.7 41.59 0 0-6 131.79 54.85 192.62C633.07 794 713 793.27 762.7 743.57A128.29 128.29 0 0 0 800.42 654a124.1 124.1 0 0 0-36.26-89C700 500.87 571 510.82 571 510.82zM452.91 510.82s-129-9.95-193.18 54.19a124 124 0 0 0-36.25 89 128.2 128.2 0 0 0 37.72 89.54C310.87 793.27 390.82 794 439.75 745c60.83-60.83 54.86-192.62 54.86-192.62-0.94-25.46-18.5-41.03-41.7-41.56z" fill="#1296db" p-id="2786" data-darkreader-inline-fill="" style="--darkreader-inline-fill:#35708e;"></path></svg>