<?xml version="1.0" standalone="no"?><!DOCTYPE svg PUBLIC "-//W3C//DTD SVG 1.1//EN" "http://www.w3.org/Graphics/SVG/1.1/DTD/svg11.dtd"><svg t="1680837741353" class="icon" viewBox="0 0 1024 1024" version="1.1" xmlns="http://www.w3.org/2000/svg" p-id="2995" data-darkreader-inline-fill="" xmlns:xlink="http://www.w3.org/1999/xlink" width="200" height="200"><path d="M815.83 744.44L749.4 678a51.3 51.3 0 0 0-72.54 0 51.3 51.3 0 0 0 0 72.54L743.29 817a51.3 51.3 0 0 0 72.54 0 51.3 51.3 0 0 0 0-72.56zM742.48 441.24C742.48 289.78 619.7 167 468.24 167S194 289.78 194 441.24s122.78 274.24 274.24 274.24S742.48 592.7 742.48 441.24z m-244.7-7.8a100.89 100.89 0 1 1 100.89-100.89 100.89 100.89 0 0 1-100.89 100.89z" fill="#1296db" p-id="2996" data-darkreader-inline-fill="" style="--darkreader-inline-fill:#35708e;"></path></svg>